<svg width="150" height="49" viewBox="0 0 150 49" fill="none" xmlns="http://www.w3.org/2000/svg">
<rect width="150" height="48.0317" rx="5" fill="#252525"/>
<path fill-rule="evenodd" clip-rule="evenodd" d="M53.862 31.8876H47.9343L46.5107 36.1746H44L49.6146 20.3139H52.2232L57.8379 36.1746H55.2843L53.862 31.8876ZM48.5482 29.9094H53.2469L50.9306 22.952H50.8658L48.5482 29.9094ZM69.9636 30.3933C69.9636 33.9868 68.0778 36.2955 65.232 36.2955C63.761 36.374 62.3754 35.5882 61.6646 34.2724H61.6107V40H59.2834V24.6109H61.5362V26.5342H61.579C62.3214 25.2266 63.7084 24.4412 65.1892 24.4899C68.0668 24.4899 69.9636 26.8099 69.9636 30.3933ZM67.5715 30.3933C67.5715 28.0522 66.3852 26.513 64.5752 26.513C62.797 26.513 61.601 28.0846 61.601 30.3933C61.601 32.7233 62.797 34.2837 64.5752 34.2837C66.3852 34.2837 67.5715 32.7557 67.5715 30.3933ZM82.4428 30.3933C82.4428 33.9868 80.557 36.2955 77.7112 36.2955C76.2402 36.374 74.8546 35.5882 74.1438 34.2724H74.0899V40H71.7626V24.6109H74.0153V26.5342H74.0581C74.8005 25.2266 76.1876 24.4412 77.6683 24.4899C80.546 24.4899 82.4428 26.8099 82.4428 30.3933ZM80.0507 30.3933C80.0507 28.0522 78.8644 26.513 77.0544 26.513C75.2762 26.513 74.0802 28.0846 74.0802 30.3933C74.0802 32.7233 75.2762 34.2837 77.0544 34.2837C78.8644 34.2837 80.0507 32.7557 80.0507 30.3933ZM90.6906 31.7554C90.863 33.3282 92.3612 34.3609 94.4084 34.3609C96.37 34.3609 97.7813 33.3282 97.7813 31.91C97.7813 30.6789 96.9302 29.9418 94.9147 29.4366L92.8993 28.9414C90.0436 28.238 88.7179 26.8759 88.7179 24.6657C88.7179 21.9291 91.0562 20.0494 94.3766 20.0494C97.6627 20.0494 99.9154 21.9291 99.9912 24.6657H97.6419C97.5013 23.0829 96.2184 22.1275 94.3435 22.1275C92.4687 22.1275 91.1858 23.0941 91.1858 24.5011C91.1858 25.6224 92.0052 26.2822 94.0097 26.7873L95.723 27.2164C98.9138 27.986 100.239 29.2932 100.239 31.6131C100.239 34.5804 97.922 36.4389 94.2359 36.4389C90.7871 36.4389 88.4586 34.6241 88.3082 31.7553L90.6906 31.7554ZM105.262 21.8743V24.6109H107.418V26.4905H105.262V32.8655C105.262 33.8558 105.694 34.3173 106.642 34.3173C106.898 34.3128 107.153 34.2944 107.407 34.2624V36.1309C106.981 36.2121 106.548 36.2488 106.115 36.2406C103.819 36.2406 102.924 35.3613 102.924 33.1186V26.4905H101.275V24.6109H102.924V21.8743H105.262ZM108.667 30.3933C108.667 26.755 110.768 24.4687 114.044 24.4687C117.332 24.4687 119.423 26.7549 119.423 30.3933C119.423 34.0417 117.343 36.318 114.044 36.318C110.747 36.318 108.667 34.0417 108.667 30.3933ZM117.052 30.3933C117.052 27.8975 115.93 26.4245 114.044 26.4245C112.159 26.4245 111.038 27.9087 111.038 30.3933C111.038 32.8992 112.159 34.361 114.044 34.361C115.93 34.361 117.052 32.8992 117.052 30.3933ZM121.342 24.6109H123.562V26.5791H123.615C123.925 25.3121 125.063 24.44 126.343 24.4899C126.611 24.4889 126.878 24.5186 127.14 24.5784V26.7986C126.801 26.6931 126.448 26.6446 126.094 26.6552C125.41 26.6269 124.748 26.905 124.282 27.4165C123.815 27.928 123.592 28.6217 123.669 29.3157V36.1745H121.342L121.342 24.6109ZM137.87 32.7782C137.557 34.8774 135.553 36.318 132.988 36.318C129.69 36.318 127.643 34.0641 127.643 30.4482C127.643 26.8211 129.701 24.4687 132.89 24.4687C136.027 24.4687 138 26.6664 138 30.1726V30.9858H129.992V31.1292C129.917 31.9901 130.209 32.8423 130.792 33.469C131.376 34.0956 132.195 34.4364 133.042 34.4046C134.171 34.5126 135.236 33.8511 135.66 32.7782L137.87 32.7782ZM130.003 29.3269L135.671 29.3269C135.714 28.5533 135.438 27.7969 134.91 27.2397C134.382 26.6826 133.65 26.3754 132.89 26.392C132.125 26.3874 131.389 26.6947 130.847 27.2459C130.305 27.797 130.001 28.5462 130.003 29.3269ZM48.2565 8.37551C49.2445 8.30319 50.2123 8.68657 50.8934 9.42012C51.5745 10.1537 51.8971 11.1601 51.7726 12.1623C51.7726 14.597 50.4823 15.9965 48.2565 15.9965H45.5574V8.37551H48.2565ZM46.718 14.9188H48.1269C48.833 14.9618 49.5205 14.6781 49.9985 14.1464C50.4766 13.6146 50.6943 12.8915 50.5912 12.1778C50.6868 11.4671 50.466 10.7499 49.9891 10.2226C49.5122 9.69517 48.8292 9.41273 48.1269 9.45248H46.718V14.9188ZM53.0836 13.1183C52.9869 12.0874 53.4716 11.0898 54.3343 10.5437C55.1971 9.99769 56.2888 9.99769 57.1515 10.5437C58.0143 11.0898 58.499 12.0874 58.4023 13.1183C58.5008 14.1503 58.0166 15.1499 57.1531 15.6971C56.2895 16.2443 55.1963 16.2443 54.3328 15.6971C53.4693 15.1499 52.985 14.1503 53.0836 13.1183ZM57.2576 13.1183C57.2576 11.8716 56.7085 11.1426 55.7448 11.1426C54.7774 11.1426 54.2332 11.8716 54.2332 13.1183C54.2332 14.375 54.7774 15.0984 55.7448 15.0984C56.7085 15.0984 57.2576 14.37 57.2576 13.1183ZM65.4723 15.9964H64.3178L63.1523 11.7606H63.0643L61.9037 15.9964H60.7602L59.2058 10.2451H60.3346L61.3448 14.6337H61.4279L62.5873 10.2451H63.655L64.8143 14.6337H64.9024L65.9077 10.2451H67.0206L65.4723 15.9964ZM68.3279 10.2451H69.3992V11.1588H69.4824C69.7716 10.4861 70.4474 10.0746 71.1652 10.1341C71.721 10.0915 72.2657 10.309 72.6454 10.7251C73.0251 11.1412 73.1987 11.7109 73.1171 12.2732V15.9964H72.0042V12.5583C72.0042 11.634 71.6104 11.1744 70.7873 11.1744C70.4103 11.1565 70.0445 11.3074 69.7856 11.5875C69.5268 11.8676 69.4009 12.2491 69.4408 12.6318V15.9964H68.3279L68.3279 10.2451ZM74.8904 8H76.0033V15.9964H74.8904V8ZM77.5503 13.1183C77.4537 12.0874 77.9385 11.0897 78.8013 10.5436C79.6641 9.99759 80.7559 9.99759 81.6187 10.5436C82.4815 11.0897 82.9663 12.0874 82.8697 13.1183C82.9681 14.1503 82.4837 15.1499 81.6202 15.6971C80.7566 16.2443 79.6634 16.2443 78.7998 15.6971C77.9362 15.1499 77.4519 14.1503 77.5503 13.1183ZM81.7243 13.1183C81.7243 11.8716 81.1752 11.1426 80.2115 11.1426C79.2442 11.1426 78.7 11.8716 78.7 13.1183C78.7 14.375 79.2442 15.0984 80.2115 15.0984C81.1752 15.0984 81.7243 14.37 81.7243 13.1183ZM84.0413 14.37C84.0413 13.3347 84.7971 12.7379 86.1387 12.6531L87.6662 12.5633V12.0668C87.6662 11.4594 87.2724 11.1164 86.5117 11.1164C85.8904 11.1164 85.4599 11.349 85.3364 11.7556H84.259C84.3727 10.7678 85.2838 10.1342 86.563 10.1342C87.9768 10.1342 88.7742 10.852 88.7742 12.0668V15.9964H87.7028V15.1882H87.6148C87.2509 15.7784 86.6039 16.1234 85.921 16.0912C85.4423 16.142 84.9648 15.9839 84.6067 15.6559C84.2486 15.328 84.0432 14.8608 84.0413 14.37ZM87.6662 13.8785V13.3977L86.2891 13.4875C85.5125 13.5405 85.1603 13.8099 85.1603 14.3169C85.1603 14.8346 85.6005 15.1358 86.206 15.1358C86.5644 15.1728 86.9221 15.0599 87.1974 14.8229C87.4726 14.5859 87.6418 14.2451 87.6662 13.8785ZM90.2368 13.1183C90.2368 11.301 91.1528 10.1497 92.5776 10.1497C93.297 10.1159 93.9708 10.5091 94.3069 11.1587H94.39V8H95.5029V15.9964H94.4365V15.0878H94.3485C93.987 15.732 93.3049 16.1185 92.5776 16.0912C91.1431 16.0913 90.2368 14.94 90.2368 13.1183ZM91.3865 13.1183C91.3865 14.3382 91.9503 15.0722 92.8932 15.0722C93.8312 15.0722 94.4109 14.3276 94.4109 13.1233C94.4109 11.9246 93.8251 11.1694 92.8932 11.1694C91.9563 11.1694 91.3865 11.9084 91.3865 13.1183ZM100.107 13.1183C100.011 12.0874 100.495 11.0898 101.358 10.5437C102.221 9.99769 103.313 9.99769 104.175 10.5437C105.038 11.0898 105.523 12.0874 105.426 13.1183C105.525 14.1503 105.04 15.1499 104.177 15.6971C103.313 16.2443 102.22 16.2443 101.357 15.6971C100.493 15.1499 100.009 14.1503 100.107 13.1183ZM104.281 13.1183C104.281 11.8716 103.732 11.1426 102.769 11.1426C101.801 11.1426 101.257 11.8716 101.257 13.1183C101.257 14.375 101.801 15.0984 102.769 15.0984C103.732 15.0984 104.281 14.37 104.281 13.1183ZM106.919 10.2451H107.991V11.1588H108.074C108.363 10.4861 109.039 10.0746 109.757 10.1341C110.312 10.0915 110.857 10.309 111.237 10.7251C111.617 11.1412 111.79 11.7109 111.709 12.2732V15.9964H110.596V12.5583C110.596 11.634 110.202 11.1744 109.379 11.1744C109.002 11.1565 108.636 11.3074 108.377 11.5875C108.118 11.8676 107.992 12.2491 108.032 12.6318V15.9964H106.919V10.2451ZM117.997 8.81325V10.2713H119.219V11.2274H117.997V14.1847C117.997 14.7872 118.24 15.051 118.794 15.051C118.936 15.0505 119.078 15.0418 119.219 15.0248V15.9702C119.019 16.0067 118.816 16.0261 118.613 16.0282C117.376 16.0282 116.883 15.5842 116.883 14.4753V11.2273H115.988V10.2713H116.883V8.81325H117.997ZM120.739 8H121.842V11.1694H121.93C122.233 10.4908 122.921 10.0788 123.65 10.1391C124.202 10.1084 124.739 10.3307 125.115 10.7453C125.491 11.16 125.665 11.7238 125.592 12.2832V15.9964H124.478V12.5632C124.478 11.6446 124.058 11.1793 123.272 11.1793C122.885 11.147 122.503 11.2905 122.229 11.5716C121.956 11.8528 121.817 12.2428 121.852 12.6374V15.9964H120.739L120.739 8ZM132.081 14.4435C131.769 15.5284 130.739 16.2293 129.637 16.1074C128.885 16.1277 128.163 15.8098 127.661 15.2381C127.159 14.6665 126.93 13.8988 127.032 13.1389C126.932 12.3768 127.161 11.6079 127.66 11.0314C128.159 10.455 128.879 10.1276 129.632 10.1341C131.201 10.1341 132.148 11.2274 132.148 13.0335V13.4295H128.166V13.4931C128.131 13.9199 128.274 14.342 128.56 14.6557C128.846 14.9694 129.248 15.1455 129.668 15.1407C130.212 15.2074 130.742 14.932 131.009 14.4435L132.081 14.4435ZM128.166 12.5901H131.014C131.043 12.1997 130.908 11.8154 130.644 11.5316C130.379 11.2479 130.01 11.0912 129.626 11.1002C129.237 11.0952 128.863 11.2506 128.588 11.5311C128.313 11.8116 128.161 12.1935 128.166 12.5901ZM31.3136 24.1667C31.3165 26.8461 32.9255 29.2643 35.4 30.308C34.9241 31.8499 34.2067 33.3069 33.2745 34.6253C32.0225 36.493 30.7098 38.3178 28.6263 38.3515C26.6019 38.3981 25.9216 37.1633 23.5996 37.1633C21.2559 37.1633 20.5307 38.3178 18.5891 38.3981C16.6049 38.4714 15.0885 36.4046 13.791 34.5544C11.1977 30.7759 9.17831 23.9059 11.8856 19.2314C13.1568 16.9531 15.5338 15.5074 18.1468 15.4232C20.1328 15.3825 21.9771 16.7608 23.1981 16.7608C24.3959 16.7608 26.6748 15.112 29.0254 15.358C31.2597 15.4278 33.3302 16.5441 34.6123 18.3702C32.5891 19.6107 31.3442 21.7983 31.3136 24.1667ZM27.4898 12.873C26.3876 14.2401 24.7177 15.0275 22.9589 15.0095C22.847 13.2954 23.423 11.6072 24.5599 10.3169C25.7112 9.00903 27.3144 8.18179 29.0499 8C29.1854 9.76491 28.6258 11.513 27.4898 12.873Z" fill="#F1F5FB"/>
</svg>
