<svg width="166" height="49" viewBox="0 0 166 49" fill="none" xmlns="http://www.w3.org/2000/svg">
<rect width="166" height="48.0317" rx="5" fill="#252525"/>
<path fill-rule="evenodd" clip-rule="evenodd" d="M58.0156 11.2409C58.0576 12.1693 57.7257 13.0747 57.0973 13.7458C56.3951 14.4921 55.4157 14.8974 54.4039 14.8606C52.8519 14.8481 51.4584 13.8851 50.8678 12.4168C50.2771 10.9486 50.6043 9.2611 51.6982 8.13471C52.4089 7.39239 53.3884 6.98432 54.4039 7.00747C54.9215 7.00571 55.4339 7.11227 55.9098 7.32059C56.3528 7.5034 56.7472 7.79097 57.0606 8.15976L56.4117 8.82358C55.9163 8.22073 55.1726 7.89134 54.4039 7.93431C53.6312 7.93043 52.8903 8.2488 52.352 8.81599C51.8138 9.38318 51.5246 10.1502 51.5513 10.9403C51.5349 12.1341 52.2222 13.2208 53.2934 13.6948C54.3646 14.1688 55.6093 13.9369 56.4485 13.1071C56.8252 12.6894 57.0425 12.147 57.0606 11.579H54.4039V10.6773H57.9666C57.9992 10.8633 58.0156 11.0519 58.0156 11.2409ZM63.6228 8.10966H60.3172V10.4894H63.329V11.3912H60.3172V13.7709H63.6228V14.6977H59.3378V7.18282H63.6228V8.10966ZM67.6385 14.6977H66.6958V8.10966H64.639V7.18282H69.7443V8.10966H67.6385V14.6977ZM73.3437 14.6977V7.18282H74.2864V14.6977H73.3437ZM78.4735 14.6977H77.5308V8.10966H75.474V7.18282H80.518V8.10966H78.4735V14.6977ZM90.0798 13.7208C88.5898 15.2366 86.1829 15.2366 84.6929 13.7208C83.2485 12.1567 83.2485 9.7113 84.6929 8.14723C85.4054 7.41296 86.375 7 87.3863 7C88.3977 7 89.3672 7.41296 90.0798 8.14723C91.5303 9.70878 91.5303 12.1592 90.0798 13.7208ZM85.3907 13.0945C86.4942 14.2187 88.2784 14.2187 89.3819 13.0945C90.4657 11.8723 90.4657 10.0082 89.3819 8.786C88.2784 7.66182 86.4942 7.66182 85.3907 8.786C84.307 10.0082 84.307 11.8723 85.3907 13.0945ZM92.4916 14.6977V7.18282H93.6424L97.2174 13.0319V7.18282H98.1601V14.6977H97.1807L93.4466 8.57308V14.6977H92.4916ZM83.3829 25.657C84.7731 25.6297 86.1146 26.1809 87.1001 27.1844C88.0857 28.1879 88.6308 29.5577 88.6106 30.98C88.6106 33.9166 86.286 36.2984 83.4155 36.303C80.545 36.3076 78.2132 33.9332 78.2042 30.9967C78.1952 28.0601 80.5124 25.6708 83.3829 25.657ZM83.3829 34.2114C84.1949 34.1922 84.965 33.8382 85.5182 33.2297C86.0715 32.6213 86.361 31.81 86.3212 30.98C86.318 29.6532 85.5224 28.4632 84.3148 27.9792C83.1072 27.4952 81.7331 27.8155 80.8498 28.787C79.9664 29.7585 79.7533 31.1836 80.3124 32.3809C80.8715 33.5781 82.0891 34.304 83.3829 34.2114ZM71.9847 25.657H71.9725C73.3627 25.6297 74.7042 26.1809 75.6897 27.1844C76.6753 28.1879 77.2204 29.5577 77.2002 30.98C77.2002 33.9182 74.8731 36.3008 72.001 36.3031C69.129 36.3054 66.7982 33.9266 66.7937 30.9884C66.7892 28.0502 69.1127 25.6639 71.9847 25.657ZM71.9847 34.2114H71.9725C72.7845 34.1922 73.5546 33.8382 74.1078 33.2297C74.6611 32.6213 74.9506 31.81 74.9108 30.98C74.9073 29.6521 74.11 28.4616 72.9009 27.9787C71.6918 27.4957 70.317 27.8187 69.4349 28.7928C68.5528 29.767 68.343 31.194 68.9061 32.3904C69.4691 33.5869 70.6903 34.3092 71.9847 34.2114ZM58.4073 27.2977L65.8388 27.2351C65.9242 27.7017 65.9652 28.1757 65.9612 28.6504C66.0188 30.599 65.334 32.4942 64.0513 33.9359C62.5855 35.5061 60.5275 36.351 58.4073 36.253C55.4433 36.371 52.6536 34.8206 51.1373 32.2124C49.621 29.6042 49.621 26.3564 51.1373 23.7483C52.6536 21.1401 55.4433 19.5897 58.4073 19.7077C60.4895 19.6892 62.4902 20.5341 63.9534 22.0498L62.3985 23.6405C61.3257 22.5809 59.886 21.9999 58.3951 22.0248C55.1495 22.0248 52.5185 24.7164 52.5185 28.0367C52.5185 31.357 55.1495 34.0486 58.3951 34.0486C59.9212 34.1108 61.402 33.5103 62.472 32.3953C63.1819 31.616 63.6133 30.6141 63.6963 29.5522H58.4073V27.2977ZM113.88 29.0512L114.137 29.6148L107.171 32.5582C107.608 33.5754 108.608 34.2162 109.693 34.1739C110.741 34.1766 111.713 33.6152 112.252 32.6959L114.027 33.9484C113.061 35.4282 111.432 36.3127 109.693 36.3031C108.31 36.3238 106.979 35.7684 106.004 34.7645C105.03 33.7606 104.496 32.3945 104.526 30.98C104.442 29.5979 104.92 28.2417 105.848 27.2333C106.776 26.2249 108.07 25.6543 109.424 25.657C111.453 25.7334 113.226 27.0838 113.88 29.0512ZM106.779 30.8297L111.431 28.8508C111.065 28.1127 110.304 27.6692 109.497 27.7236C108.731 27.7589 108.011 28.1081 107.5 28.6925C106.989 29.2768 106.729 30.0471 106.779 30.8297ZM101.123 35.99V20.3339H103.412V35.99H101.123ZM97.3765 26.8468V25.9701H99.4823V35.4514C99.4823 39.3842 97.2663 40.9999 94.5852 40.9999C92.5641 41.0123 90.738 39.7685 89.9696 37.8562L91.9652 37.0045C92.3823 38.1205 93.4175 38.8678 94.5852 38.8957C96.2992 38.8957 97.3643 37.8061 97.3643 35.7645V35.0005H97.2908C96.6028 35.8125 95.5987 36.2711 94.5484 36.253C91.7695 36.1151 89.5856 33.77 89.5856 30.9237C89.5856 28.0774 91.7695 25.7322 94.5484 25.5943C95.5953 25.5929 96.5929 26.0486 97.2908 26.8468H97.3765ZM94.7566 34.2114H94.7443C95.54 34.1801 96.2885 33.8171 96.8158 33.2067C97.3431 32.5963 97.6032 31.7917 97.5357 30.98C97.5961 30.1721 97.3352 29.3734 96.812 28.765C96.2887 28.1566 95.5476 27.7901 94.7566 27.7486C93.1195 27.8962 91.864 29.2988 91.864 30.98C91.864 32.6612 93.1195 34.0638 94.7566 34.2114ZM124.617 20.3339C126.396 20.2032 128.096 21.0998 129.025 22.6573C129.953 24.2148 129.953 26.1723 129.025 27.7298C128.096 29.2873 126.396 30.1839 124.617 30.0532H121.422V35.99H119.132V20.3339H124.617ZM124.605 27.8488L124.654 27.8864C126.104 27.8864 127.28 26.6836 127.28 25.1998C127.28 23.7161 126.104 22.5132 124.654 22.5132H121.409V27.8488H124.605ZM138.721 25.5943L138.782 25.6319C141.39 25.6319 143.422 27.2226 143.422 29.9655V35.99H141.218V34.7375H141.145C140.508 35.7504 139.381 36.3267 138.207 36.2405C137.254 36.3125 136.313 35.9872 135.598 35.3384C134.883 34.6897 134.455 33.7727 134.411 32.7961C134.411 30.5291 136.627 29.2767 138.819 29.2767C139.651 29.2731 140.471 29.4796 141.206 29.8778V29.715C141.148 29.1133 140.856 28.5608 140.395 28.1816C139.935 27.8024 139.345 27.6284 138.758 27.6985C137.902 27.6269 137.086 28.0789 136.676 28.8508L134.644 27.9866C135.416 26.4299 137.018 25.4902 138.721 25.5943ZM138.439 34.1739L138.501 34.2114C139.88 34.177 141.023 33.1085 141.182 31.7065C140.546 31.3437 139.828 31.1621 139.1 31.1804C137.95 31.1804 136.652 31.5937 136.652 32.8462C136.652 33.7856 137.692 34.1739 138.439 34.1739ZM151.454 25.9701H154L147.732 40.7369H145.344L147.67 35.4639L143.594 25.9701H146.042L148.76 32.7586H148.834L151.454 25.9701ZM130.873 35.99V20.3339H133.163V35.99H130.873ZM40.22 22.9583C40.5295 23.1373 40.7145 23.4576 40.7144 23.8151C40.7144 24.1726 40.5295 24.493 40.22 24.6715L34.6025 27.9138L30.6591 24.1019L34.9738 19.931L40.22 22.9583ZM34.0833 19.4166L29.9481 23.4144L15.6576 9.6L28.3101 16.0837L34.0833 19.4166ZM15.8677 38.4L29.9481 24.7893L33.712 28.4282L28.3318 31.5341L15.8677 38.4ZM14.8134 10.1592L29.2369 24.1016L14.8 38.0574L14.8134 10.1592Z" fill="#F1F5FB"/>
</svg>
